<?xml version="1.0" encoding="UTF-8"?>
<!DOCTYPE svg PUBLIC "-//W3C//DTD SVG 20010904//EN" "http://www.w3.org/TR/2001/REC-SVG-20010904/DTD/svg10.dtd">
<svg xmlns="http://www.w3.org/2000/svg" xmlns:xlink="http://www.w3.org/1999/xlink" version="1.0" width="1200.000000pt" height="1200.000000pt" viewBox="0 0 1200.000000 1200.000000" preserveAspectRatio="xMidYMid meet" zoomAndPan="magnify" contentScriptType="text/ecmascript" contentStyleType="text/css">
  <rect width="100%" height="100%" fill="#1b1a87" />
  <g transform="translate(0.000000,1200.000000) scale(0.100000,-0.100000)" fill="#ffa31c" stroke="none">
    <path d="M5865 10514 c-315 -15 -413 -28 -641 -85 -87 -22 -186 -46 -219 -53 -33 -8 -127 -37 -210 -65 -82 -28 -172 -58 -200 -67 -27 -9 -63 -22 -80 -30 -16 -7 -50 -21 -75 -30 -155 -56 -309 -111 -400 -143 -126 -45 -121 -43 -240 -94 -52 -22 -111 -44 -130 -49 -35 -10 -233 -97 -325 -144 -27 -14 -90 -46 -140 -71 -49 -25 -121 -66 -160 -90 -38 -24 -131 -82 -205 -129 -706 -443 -1221 -898 -1623 -1434 -47 -63 -104 -137 -125 -165 -22 -27 -75 -104 -117 -170 -43 -66 -97 -149 -120 -185 -23 -36 -64 -105 -90 -155 -26 -49 -53 -97 -60 -105 -12 -15 -165 -326 -165 -336 0 -3 -25 -64 -57 -137 -31 -72 -60 -145 -64 -162 -4 -16 -31 -93 -59 -170 -28 -77 -55 -158 -60 -180 -5 -22 -33 -123 -64 -225 -31 -101 -56 -192 -56 -202 0 -9 -16 -79 -35 -155 -99 -394 -127 -799 -86 -1220 20 -200 97 -458 187 -623 67 -124 67 -123 130 -197 179 -208 315 -297 564 -368 338 -98 488 -111 853 -76 325 31 542 68 1002 171 44 10 82 16 84 15 2 -2 -6 -35 -17 -72 -29 -100 -32 -115 -48 -253 -54 -489 38 -855 280 -1109 57 -58 205 -176 267 -211 15 -8 60 -37 100 -64 99 -66 208 -119 297 -146 147 -43 564 -62 862 -40 217 16 287 29 430 76 74 24 153 47 175 50 106 16 454 127 544 175 65 34 118 71 277 194 184 143 262 199 364 263 123 77 424 230 565 288 22 9 54 22 70 29 71 30 347 125 422 144 45 11 101 27 125 35 53 18 231 65 358 96 182 44 349 109 589 230 364 183 435 209 651 245 184 30 282 41 555 60 121 9 256 20 300 25 44 6 123 14 177 20 287 29 551 141 828 349 329 247 505 433 603 636 29 60 143 412 161 496 9 41 31 141 50 223 69 294 79 375 80 656 1 223 -2 272 -22 388 -108 630 -154 761 -404 1160 -32 51 -58 96 -58 99 0 3 -14 24 -31 47 -17 23 -76 111 -132 197 -102 155 -133 199 -270 379 -258 338 -596 668 -1002 978 -66 51 -138 106 -160 123 -22 17 -123 91 -225 165 -102 75 -196 145 -210 157 -37 33 -205 151 -290 203 -41 25 -84 54 -95 64 -25 21 -257 146 -345 184 -36 16 -87 39 -115 51 -27 13 -68 28 -90 35 -22 7 -107 38 -190 69 -82 31 -184 69 -225 83 -41 15 -111 41 -155 58 -44 17 -96 34 -115 39 -19 5 -89 28 -155 51 -146 51 -543 152 -680 174 -309 49 -563 56 -1110 30z m910 -233 c272 -38 299 -43 601 -125 184 -49 478 -151 864 -298 58 -22 152 -57 210 -78 95 -34 214 -87 310 -138 93 -50 379 -231 415 -264 11 -10 92 -70 180 -134 88 -64 174 -129 190 -144 17 -15 41 -33 55 -40 14 -7 43 -28 65 -47 22 -18 96 -74 165 -125 144 -106 266 -203 330 -263 25 -23 95 -88 157 -144 62 -56 163 -156 225 -224 62 -67 129 -137 148 -157 20 -19 47 -52 60 -72 14 -21 28 -38 32 -38 14 0 223 -289 356 -494 42 -65 101 -155 131 -200 120 -181 238 -400 288 -536 41 -108 109 -420 132 -602 6 -49 16 -127 23 -175 14 -108 13 -237 -1 -396 -16 -165 -34 -262 -97 -527 -58 -244 -61 -256 -124 -435 -73 -206 -98 -245 -264 -410 -121 -120 -234 -212 -376 -307 -58 -38 -112 -76 -120 -83 -27 -25 -243 -117 -319 -137 -42 -11 -105 -23 -141 -28 -36 -5 -117 -15 -180 -24 -63 -8 -241 -25 -395 -36 -436 -32 -655 -66 -810 -124 -163 -61 -188 -73 -380 -170 -281 -143 -455 -211 -660 -255 -27 -6 -90 -23 -140 -37 -49 -14 -153 -43 -230 -64 -77 -21 -160 -46 -185 -55 -25 -9 -110 -39 -189 -67 -79 -27 -182 -67 -228 -89 -47 -21 -89 -39 -93 -39 -11 0 -353 -171 -360 -180 -3 -3 -43 -28 -90 -55 -99 -56 -232 -145 -275 -184 -74 -68 -394 -301 -412 -301 -3 0 -47 -15 -97 -34 -88 -33 -194 -64 -356 -102 -41 -9 -127 -35 -190 -56 -91 -31 -150 -43 -285 -59 -230 -28 -541 -28 -750 -1 -161 21 -238 45 -305 93 -23 17 -49 33 -58 37 -9 4 -71 43 -137 86 -173 114 -266 210 -332 346 -55 113 -63 137 -89 275 -19 103 -22 339 -5 450 6 39 15 102 21 140 13 100 76 276 156 440 76 157 170 313 339 561 106 156 115 168 240 320 269 330 598 597 1035 840 47 26 112 63 145 84 33 20 98 55 145 79 47 24 92 49 100 55 8 7 65 38 125 69 61 30 128 64 150 76 91 46 281 133 322 147 24 8 77 30 118 49 40 19 102 44 137 55 35 11 72 25 83 30 46 22 256 100 267 100 7 0 78 23 158 51 80 27 179 58 220 69 41 10 149 41 240 69 91 28 172 51 180 51 29 0 270 73 270 82 0 18 -52 193 -59 201 -4 4 -41 -2 -82 -13 -41 -12 -94 -25 -119 -30 -44 -8 -141 -35 -285 -80 -38 -12 -97 -28 -130 -36 -33 -8 -134 -39 -225 -68 -91 -29 -187 -60 -215 -69 -59 -18 -181 -63 -210 -77 -11 -5 -58 -23 -105 -39 -94 -32 -260 -99 -390 -158 -134 -60 -615 -303 -725 -367 -55 -32 -110 -62 -123 -67 -13 -5 -42 -22 -65 -37 -23 -16 -87 -54 -142 -85 -55 -30 -111 -65 -125 -77 -14 -12 -38 -29 -55 -37 -82 -43 -358 -246 -436 -322 -20 -20 -76 -75 -125 -122 -193 -187 -325 -345 -464 -554 -29 -44 -61 -89 -71 -101 -11 -11 -53 -74 -93 -140 -41 -65 -95 -150 -119 -189 -40 -62 -174 -326 -193 -380 -6 -16 -10 -9 -18 29 -7 27 -17 51 -23 53 -11 4 -51 -4 -273 -54 -36 -8 -90 -18 -120 -23 -30 -5 -109 -20 -175 -34 -313 -67 -537 -89 -846 -83 -233 4 -249 6 -354 34 -337 93 -441 159 -611 388 -123 165 -195 378 -230 675 -30 254 -17 614 32 885 30 165 115 501 184 725 21 69 41 138 45 155 12 53 147 408 190 500 23 50 45 101 50 115 4 14 26 61 50 105 24 44 64 121 90 170 26 50 51 92 55 95 4 3 17 25 30 49 12 25 45 81 74 125 28 45 57 93 65 107 7 15 23 37 35 50 12 13 42 53 66 89 100 148 275 373 334 429 20 19 36 39 36 44 0 10 368 378 471 472 92 83 185 158 309 249 58 42 132 97 165 121 83 62 210 148 270 183 28 16 70 45 95 63 48 37 263 169 274 169 3 0 40 21 82 46 42 25 101 57 132 71 31 13 103 47 159 74 57 27 107 49 113 49 6 0 73 26 148 59 75 32 150 62 166 65 17 4 80 27 142 51 61 24 136 52 165 61 30 9 116 41 192 71 76 29 145 53 155 53 9 0 29 6 43 14 29 15 290 102 329 109 14 3 72 18 130 35 212 60 289 74 540 98 163 15 611 32 760 29 91 -2 233 -13 315 -24z" />
    <path d="M4863 3763 c-3 -10 -14 -38 -24 -62 -11 -24 -18 -45 -17 -46 2 -1 28 -12 58 -25 30 -12 84 -36 119 -52 36 -16 85 -37 110 -45 25 -8 82 -32 126 -53 44 -21 102 -45 128 -54 26 -9 66 -25 87 -36 l39 -20 18 32 c23 43 43 88 43 98 0 4 -8 10 -17 13 -41 13 -155 58 -258 102 -60 26 -141 61 -180 78 -38 16 -98 42 -133 58 -72 34 -90 36 -99 12z" />
    <path d="M4866 8757 c-3 -12 -7 -45 -11 -73 l-5 -51 137 -27 c76 -15 264 -54 418 -87 154 -33 288 -59 298 -59 9 0 140 -26 290 -59 149 -32 331 -70 402 -84 72 -15 204 -42 295 -61 91 -19 230 -48 310 -64 393 -81 473 -98 710 -148 140 -30 284 -59 320 -65 36 -5 168 -33 294 -61 147 -32 231 -47 238 -40 7 7 30 123 24 128 -3 3 -248 56 -351 76 -60 11 -232 47 -381 79 -150 33 -280 59 -291 59 -10 0 -140 27 -288 60 -149 33 -279 60 -290 60 -11 0 -92 16 -180 35 -88 19 -216 47 -285 61 -69 14 -201 41 -295 61 -93 19 -226 47 -295 60 -69 14 -251 52 -405 84 -154 32 -338 70 -410 84 -71 14 -156 32 -188 40 -56 13 -57 13 -61 -8z" />
    <path d="M8790 7316 c-23 -36 -45 -66 -49 -68 -4 -2 -76 -104 -161 -228 -85 -124 -160 -231 -166 -238 -7 -7 -66 -90 -130 -185 -65 -94 -123 -176 -129 -182 -7 -5 -66 -88 -131 -183 -65 -95 -137 -198 -160 -230 -22 -31 -96 -137 -165 -235 -68 -98 -183 -262 -256 -365 -114 -161 -339 -483 -410 -585 -12 -18 -42 -59 -66 -92 -24 -33 -89 -124 -143 -203 -54 -78 -150 -215 -211 -304 l-113 -161 50 -33 c27 -18 54 -35 59 -38 5 -4 33 29 61 71 29 43 62 89 74 103 12 14 31 39 42 55 11 17 56 82 99 145 132 194 168 245 175 250 4 3 38 50 75 105 135 198 179 260 186 265 3 3 28 37 54 75 141 206 200 291 210 300 7 6 27 33 45 60 29 45 124 182 220 321 19 28 55 78 80 112 25 33 74 104 110 157 36 53 90 129 120 170 30 40 84 117 120 169 36 53 85 124 110 157 25 34 53 75 62 91 9 17 25 40 36 52 11 11 50 66 87 121 98 144 145 211 201 286 79 107 157 223 161 240 3 10 -13 29 -46 53 -28 20 -53 36 -55 36 -2 0 -23 -29 -46 -64z" />  
    <path d="M8430 7654 c-477 -105 -707 -156 -810 -177 -63 -14 -185 -40 -270 -60 -85 -19 -191 -42 -235 -51 -44 -8 -165 -36 -270 -61 -104 -24 -200 -45 -212 -45 -12 0 -89 -16 -170 -35 -81 -19 -195 -46 -253 -60 -58 -14 -113 -25 -124 -25 -10 0 -134 -26 -275 -59 -141 -32 -303 -68 -361 -79 -58 -12 -179 -39 -270 -60 -91 -21 -192 -43 -225 -49 -33 -5 -162 -33 -287 -61 -585 -133 -687 -156 -738 -164 -30 -6 -170 -36 -310 -68 -140 -32 -290 -63 -333 -70 -108 -18 -112 -21 -96 -98 7 -34 18 -62 24 -62 5 0 60 11 120 24 61 14 155 34 210 45 55 11 168 37 250 56 83 20 176 40 207 45 31 4 166 33 300 64 134 30 288 64 343 75 55 11 176 39 268 61 93 22 178 40 190 40 11 0 48 7 81 15 272 65 370 87 443 100 46 8 143 29 216 46 72 17 178 42 233 55 56 13 111 24 121 24 11 0 125 25 254 55 129 31 263 60 299 66 36 5 128 25 205 43 143 35 284 66 390 86 33 6 123 26 200 45 147 34 253 57 345 74 30 6 123 26 205 46 83 19 184 42 225 51 211 43 321 68 324 73 2 3 -4 34 -12 69 -11 45 -20 62 -31 61 -9 0 -86 -16 -171 -35z" />  
  </g>
  <g transform="translate(0.000000,1200.000000) scale(0.100000,-0.100000)" fill="#ffff40" stroke="none">
    <path d="M6134 9724 c-47 -113 -76 -182 -89 -204 -26 -48 -64 -61 -212 -71 -76 -5 -149 -10 -163 -12 -22 -2 -18 -6 30 -36 96 -60 221 -145 231 -158 6 -7 7 -18 3 -25 -16 -25 -121 -263 -118 -267 2 -2 33 14 69 35 36 22 83 48 103 59 21 12 68 37 104 57 l67 37 58 -38 c32 -22 78 -49 103 -62 25 -12 67 -38 94 -56 28 -18 52 -31 54 -28 6 5 -43 134 -79 212 -16 34 -29 65 -29 70 0 5 26 24 58 43 31 19 77 48 102 64 25 17 71 45 104 62 l58 32 -158 4 c-88 3 -171 10 -186 16 -51 21 -96 83 -139 192 -23 58 -43 107 -45 109 -2 2 -11 -13 -20 -35z" />
    <path d="M4318 9290 c-20 -41 -43 -97 -53 -123 -12 -32 -27 -53 -47 -63 -31 -16 -121 -29 -280 -39 l-108 -7 38 -28 c21 -15 83 -50 138 -78 150 -77 142 -66 110 -144 -14 -37 -42 -99 -61 -139 -57 -119 -50 -118 215 33 19 11 44 27 55 34 26 18 50 18 66 -2 7 -9 27 -23 45 -32 18 -9 63 -34 99 -55 99 -58 110 -46 75 84 -28 106 -26 129 13 166 17 17 82 57 142 88 61 32 114 61 118 65 5 4 -38 10 -95 14 -57 4 -141 12 -188 17 -75 9 -89 14 -118 42 -29 28 -65 93 -114 207 l-16 35 -34 -75z" />
    <path d="M7943 9333 c-46 -108 -90 -202 -101 -215 -19 -23 -80 -35 -246 -49 l-148 -12 31 -28 c17 -15 83 -53 146 -85 71 -36 115 -64 115 -74 0 -20 -34 -109 -69 -178 -41 -83 -46 -102 -25 -102 10 0 61 24 113 53 114 64 189 84 253 67 24 -7 50 -18 58 -26 9 -7 31 -20 50 -29 19 -9 59 -32 89 -50 30 -19 56 -33 59 -31 2 2 -3 18 -12 34 -8 16 -27 73 -41 126 -25 93 -25 98 -9 132 20 41 24 45 173 132 l115 67 -182 11 c-171 11 -183 13 -215 37 -34 25 -107 157 -122 220 -4 15 -10 27 -14 27 -4 0 -12 -12 -18 -27z" />
    <path d="M2990 8223 c-75 -161 -72 -157 -115 -171 -22 -7 -89 -17 -150 -22 -60 -5 -134 -12 -164 -16 -62 -7 -62 -7 64 -73 44 -24 87 -49 95 -56 8 -7 32 -20 53 -29 46 -19 53 -35 33 -78 -8 -18 -28 -67 -44 -108 -16 -41 -37 -92 -46 -114 l-17 -38 68 37 c37 21 75 43 83 50 29 24 149 65 190 65 57 0 220 -81 279 -138 23 -22 24 -6 3 60 -34 108 -54 193 -50 219 4 29 74 79 206 145 51 26 91 49 89 51 -3 2 -76 10 -164 18 -88 7 -173 17 -189 21 -49 11 -81 52 -130 163 -25 58 -47 107 -48 108 -1 1 -22 -41 -46 -94z" />
    <path d="M9221 8220 c-29 -58 -60 -113 -68 -122 -34 -38 -99 -57 -253 -72 -84 -9 -154 -17 -156 -19 -2 -1 41 -25 94 -52 53 -27 108 -57 122 -68 14 -10 40 -25 58 -32 18 -8 35 -21 38 -30 4 -9 -9 -49 -30 -91 -20 -41 -36 -77 -36 -82 -1 -4 -9 -25 -20 -47 -20 -41 -25 -65 -13 -65 3 0 63 30 132 67 110 58 133 66 181 67 41 0 65 -5 92 -22 20 -12 63 -36 96 -53 32 -17 72 -42 88 -56 37 -31 40 -18 16 54 -57 165 -63 223 -26 254 26 23 145 96 207 129 32 17 55 34 53 39 -3 4 -74 11 -158 15 -84 4 -170 11 -190 17 -55 14 -84 56 -160 239 l-15 35 -52 -105z" />
    <path d="M9735 6885 c-109 -298 -94 -284 -312 -300 -87 -7 -160 -13 -163 -14 -5 -1 146 -103 217 -147 65 -40 66 -42 31 -109 -27 -53 -78 -177 -78 -190 0 -15 99 29 243 110 73 40 73 40 147 -1 14 -8 61 -33 105 -55 44 -22 84 -44 90 -50 20 -20 36 -10 29 19 -10 41 -49 152 -67 194 l-17 38 106 72 c59 40 122 82 140 92 19 11 34 23 34 28 0 4 -30 8 -67 8 -38 0 -113 5 -167 10 -92 9 -102 12 -132 41 -21 20 -45 63 -64 113 -17 45 -40 99 -50 121 -16 35 -19 37 -25 20z" />
    <path d="M2486 6750 c-42 -87 -66 -124 -85 -134 -40 -21 -116 -34 -239 -42 -62 -4 -111 -11 -110 -16 2 -5 30 -21 63 -35 33 -15 91 -47 128 -71 l69 -44 -7 -45 c-4 -25 -11 -53 -15 -62 -16 -29 -49 -166 -41 -173 7 -8 171 71 254 122 l48 30 52 -33 c68 -44 236 -131 241 -126 7 7 -31 141 -59 208 -14 35 -25 65 -23 66 2 2 30 18 63 36 33 17 83 47 110 65 28 18 67 40 88 50 20 10 37 21 37 24 0 4 -55 10 -123 13 -68 4 -148 12 -178 18 -74 16 -115 61 -164 178 -21 50 -41 91 -44 91 -4 0 -33 -54 -65 -120z" />
    <path d="M3006 5394 c-15 -32 -37 -81 -48 -109 -28 -65 -36 -75 -77 -92 -26 -11 -278 -41 -360 -43 -20 0 26 -34 72 -54 21 -8 59 -29 84 -46 25 -17 67 -42 94 -56 27 -13 49 -30 49 -37 0 -7 -25 -68 -56 -137 -65 -145 -65 -146 -40 -142 27 5 188 85 212 106 11 9 38 28 61 41 l41 25 88 -57 c49 -31 114 -72 144 -92 30 -20 59 -38 64 -40 11 -5 7 14 -50 216 -16 58 -16 64 0 88 9 14 42 42 74 62 31 20 69 44 84 55 15 10 31 18 35 18 4 0 28 13 52 29 l44 29 -64 6 c-35 3 -113 8 -173 11 -173 10 -170 8 -242 154 l-61 124 -27 -59z" />
    <path d="M9221 5357 c-25 -51 -54 -103 -65 -116 -34 -38 -97 -60 -207 -72 -57 -6 -128 -13 -158 -17 l-55 -7 100 -53 c154 -84 213 -117 223 -128 6 -5 -2 -32 -20 -69 -43 -85 -92 -205 -87 -211 6 -6 148 61 213 100 77 47 126 43 250 -23 55 -29 112 -65 127 -79 15 -14 30 -23 33 -20 3 3 -10 59 -30 124 -51 167 -46 183 80 258 33 20 67 41 75 46 8 5 37 21 63 36 26 14 46 28 44 31 -3 2 -76 6 -163 9 -88 2 -176 9 -196 15 -50 13 -85 58 -130 171 -20 51 -41 94 -45 95 -4 1 -28 -40 -52 -90z" />
    <path d="M7897 4300 c-42 -85 -65 -121 -89 -136 -35 -23 -123 -39 -288 -50 -107 -8 -108 -1 14 -79 130 -83 206 -137 206 -146 0 -6 -15 -40 -34 -77 -39 -75 -79 -173 -73 -178 2 -2 66 28 141 66 97 49 149 70 175 70 37 0 126 -36 152 -62 8 -8 41 -30 74 -48 33 -18 64 -36 70 -41 22 -21 23 -6 5 44 -11 29 -29 88 -40 131 -33 125 -24 140 151 236 166 93 166 90 -7 90 -160 0 -251 15 -285 46 -25 22 -89 145 -89 171 -1 10 -7 32 -14 48 l-13 30 -56 -115z" />
    <path d="M4300 4293 c-23 -60 -51 -118 -62 -130 -22 -24 -51 -28 -283 -47 l-140 -11 63 -37 c35 -21 67 -38 71 -38 7 0 156 -93 170 -106 15 -14 -1 -102 -29 -163 -63 -137 -9 -135 207 6 61 39 54 42 201 -55 92 -60 149 -89 158 -79 3 3 -13 64 -36 136 -23 72 -39 134 -36 139 10 16 151 107 208 134 32 15 67 36 78 46 21 19 20 19 -87 26 -190 12 -276 26 -301 49 -26 24 -80 121 -106 190 -10 26 -21 47 -25 47 -4 0 -27 -48 -51 -107z" />
    <path d="M6137 4023 c-3 -5 -21 -51 -41 -103 -21 -52 -45 -115 -55 -140 l-17 -45 -185 -17 c-101 -9 -188 -17 -194 -17 -12 -1 35 -27 90 -49 56 -22 171 -98 179 -118 13 -34 4 -70 -44 -181 -27 -63 -50 -117 -50 -119 0 -6 233 116 240 125 3 4 25 19 50 33 l45 26 64 -40 c35 -21 88 -52 116 -67 29 -16 65 -37 79 -46 14 -10 26 -13 26 -7 0 27 -24 124 -47 194 -15 43 -25 79 -22 81 2 2 58 38 124 80 183 116 180 106 35 107 -149 1 -205 12 -244 48 -30 29 -94 150 -114 220 -12 39 -25 52 -35 35z" />
  </g>
</svg>